<svg xmlns="http://www.w3.org/2000/svg" width="30" height="35" fill="none" viewBox="0 0 30 35">
  <path fill="#FF7346" d="M11.913 4.054C14.28 1.22 15.464-.196 16.826.022c1.36.218 1.997 1.927 3.27 5.344l.33.884c.362.97.543 1.456.895 1.814.352.357.835.547 1.802.925l.88.345c3.401 1.332 5.102 1.998 5.296 3.36.194 1.361-1.247 2.517-4.13 4.827l-.745.598c-.82.656-1.23.985-1.466 1.434-.237.45-.275.969-.35 2.008l-.07.946c-.265 3.657-.398 5.485-1.639 6.108-1.241.623-2.769-.371-5.824-2.36l-.79-.515c-.868-.565-1.302-.848-1.8-.928-.5-.08-1.006.052-2.019.316l-.923.24c-3.565.928-5.348 1.391-6.31.415-.96-.976-.463-2.746.532-6.286l.257-.916c.282-1.005.424-1.508.353-2.007-.071-.499-.347-.937-.897-1.813l-.502-.798C1.038 10.88.07 9.338.716 8.112c.647-1.227 2.482-1.326 6.152-1.525l.95-.051c1.042-.057 1.563-.085 2.018-.313.455-.229.791-.631 1.464-1.436l.613-.733Z" opacity=".74"/>
  <path fill="#FF7346" d="M20.772 15.64c-1.776-2.125-2.664-3.187-3.685-3.024-1.02.164-1.498 1.445-2.453 4.008l-.248.663c-.27.729-.407 1.093-.67 1.36-.265.27-.627.411-1.352.695l-.66.259c-2.551.999-3.827 1.498-3.972 2.52-.146 1.02.935 1.887 3.097 3.62l.56.448c.614.492.92.739 1.099 1.076.178.337.206.726.263 1.506l.051.71c.2 2.742.299 4.113 1.23 4.58.93.468 2.076-.278 4.367-1.77l.593-.386c.651-.424.977-.636 1.35-.696.375-.06.755.04 1.515.237l.691.18c2.675.696 4.012 1.044 4.733.311.72-.732.348-2.06-.398-4.714l-.193-.687c-.212-.754-.318-1.132-.265-1.506.053-.374.26-.702.673-1.36l.376-.598c1.453-2.312 2.18-3.468 1.695-4.388-.486-.92-1.862-.995-4.614-1.144l-.712-.038c-.782-.043-1.173-.064-1.514-.235-.34-.171-.593-.473-1.098-1.077l-.46-.55Z"/>
</svg>
