<svg xmlns="http://www.w3.org/2000/svg" width="920" height="36" fill="none" viewBox="0 0 920 36">
  <path fill="#7E807B" d="M.254 6A5.963 5.963 0 0 1 6.217.037h80.36v35.715H.253V6Z"/>
  <path fill="#fff" d="M86.576.037h69.379v11.926H86.576z"/>
  <path fill="#FF7346" d="M155.955.037h69.379v11.926h-69.379z"/>
  <path fill="#6E706C" d="M225.334.037h69.379v11.926h-69.379z"/>
  <path fill="#fff" d="M294.713.037h69.379v11.926h-69.379z"/>
  <path fill="#FF7346" d="M364.092.037h69.379v11.926h-69.379z"/>
  <path fill="#7E807B" d="M433.471.037h69.379v11.926h-69.379z"/>
  <path fill="#fff" d="M502.85.037h69.379v11.926H502.85z"/>
  <path fill="#FF7346" d="M572.229.037h69.379v11.926h-69.379z"/>
  <path fill="#7E807B" d="M641.607.037h69.379v11.926h-69.379z"/>
  <path fill="#fff" d="M710.986.037h69.379v11.926h-69.379z"/>
  <path fill="#FF7346" d="M780.365.037h69.379v11.926h-69.379z"/>
  <path fill="#7E807B" d="M849.744.037h64.041A5.963 5.963 0 0 1 919.748 6v22.105h-70.004V.037Z"/>
</svg>
